{"title":"Attack on Titan (Shingeki No Kyojin) - S01E24 1080p .MP4","uid":8951742,"size":626073316,"categoryP":"video","categoryS":"hd___tv_shows","magnet":"?xt=urn:btih:d25ad249403c09eb41c8c6ae8e1e1d5b6a73648f&amp;dn=Attack+on+Titan+%28Shingeki+No+Kyojin%29+-+S01E24+1080p+.MP4&amp;tr=udp%3A%2F%2Ftracker.openbittorrent.com%3A80&amp;tr=udp%3A%2F%2Fopen.demonii.com%3A1337&amp;tr=udp%3A%2F%2Ftracker.coppersurfer.tk%3A6969&amp;tr=udp%3A%2F%2Fexodus.desync.com%3A6969","seeders":1,"leechers":0,"uploader":"Danimal1q2w3","files":1,"time":1379901774,"description":"Sorry this is late, I've been playing GTA V lol\n\n\nsource:\n &lt;a href=&quot;\nhttp://thepiratebay.se/torrent/8947666/Attack_on_Titan_%28Shingeki_no_Kyojin%29_S01E24_Mercy_%281920x1080%29_%5BP&quot; rel=&quot;nofollow&quot; target=&quot;_NEW&quot;&gt;\nhttp://thepiratebay.se/torrent/8947666/Attack_on_Titan_%28Shingeki_no_Kyojin%29_S01E24_Mercy_%281920x1080%29_%5BP&lt;/a&gt;\n\nVideo\nID                                       : 1\nFormat                                   : AVC\nFormat/Info                              : Advanced Video Codec\nFormat profile                           : &lt;a class=&quot;__cf_email__&quot; href=&quot;/cdn-cgi/l/email-protection&quot; data-cfemail=&quot;efad8e9c8a8386818aafa3dec1dc&quot;&gt;[email&amp;#160;protected]&lt;/a&gt;&lt;script cf-hash='f9e31' type=&quot;text/javascript&quot;&gt;\n/* &lt;![CDATA[ */!function(){try{var t=&quot;currentScript&quot;in document?document.currentScript:function(){for(var t=document.getElementsByTagName(&quot;script&quot;),e=t.length;e--;)if(t[e].getAttribute(&quot;cf-hash&quot;))return t[e]}();if(t&amp;&amp;t.previousSibling){var e,r,n,i,c=t.previousSibling,a=c.getAttribute(&quot;data-cfemail&quot;);if(a){for(e=&quot;&quot;,r=parseInt(a.substr(0,2),16),n=2;a.length-n;n+=2)i=parseInt(a.substr(n,2),16)^r,e+=String.fromCharCode(i);e=document.createTextNode(e),c.parentNode.replaceChild(e,c)}}}catch(u){}}();/* ]]&gt; */&lt;/script&gt;\nFormat settings, CABAC                   : No\nFormat settings, ReFrames                : 2 frames\nCodec ID                                 : avc1\nCodec ID/Info                            : Advanced Video Coding\nDuration                                 : 24mn 6s\nBit rate mode                            : Variable\nBit rate                                 : 3 207 Kbps\nWidth                                    : 1 920 pixels\nHeight                                   : 1 088 pixels\nOriginal height                          : 1 080 pixels\nDisplay aspect ratio                     : 16:9\nOriginal display aspect ratio            : 16:9\nFrame rate mode                          : Constant\nFrame rate                               : 30.000 fps\nColor space                              : YUV\nChroma subsampling                       : 4:2:0\nBit depth                                : 8 bits\nScan type                                : Progressive\nBits/(Pixel*Frame)                       : 0.051\nStream size                              : 553 MiB (93%)\nLanguage                                 : English\nEncoded date                             : UTC 2013-09-22 23:52:21\nTagged date                              : UTC 2013-09-22 23:52:27\n\nAudio\nID                                       : 2\nFormat                                   : AAC\nFormat/Info                              : Advanced Audio Codec\nFormat profile                           : LC\nCodec ID                                 : 40\nDuration                                 : 24mn 7s\nBit rate mode                            : Variable\nBit rate                                 : 252 Kbps\nMaximum bit rate                         : 311 Kbps\nChannel(s)                               : 2 channels\nChannel positions                        : Front: L R\nSampling rate                            : 48.0 KHz\nCompression mode                         : Lossy\nStream size                              : 43.4 MiB (7%)\nLanguage                                 : English\nEncoded date                             : UTC 2013-09-22 23:52:27\nTagged date                              : UTC 2013-09-22 23:52:28\n\n","torrent":{"xt":"urn:btih:d25ad249403c09eb41c8c6ae8e1e1d5b6a73648f","amp;dn":"Attack+on+Titan+%28Shingeki+No+Kyojin%29+-+S01E24+1080p+.MP4","amp;tr":["udp%3A%2F%2Ftracker.openbittorrent.com%3A80","udp%3A%2F%2Fopen.demonii.com%3A1337","udp%3A%2F%2Ftracker.coppersurfer.tk%3A6969","udp%3A%2F%2Fexodus.desync.com%3A6969"],"infoHash":"d25ad249403c09eb41c8c6ae8e1e1d5b6a73648f","infoHashBuffer":{"type":"Buffer","data":[210,90,210,73,64,60,9,235,65,200,198,174,142,30,29,91,106,115,100,143]},"announce":[],"urlList":[]}}